<svg xmlns="http://www.w3.org/2000/svg" xmlns:xlink="http://www.w3.org/1999/xlink" preserveAspectRatio="xMidYMid" width="68" height="100.062" viewBox="0 0 68 100.062">
  <defs>
    <style>
      @keyframes container {
        0% {opacity: 0; transform:translateY(10px);}
        70% {transform:translateY(0);}
        100% {opacity: 1;}
      }
      .container {
        animation: container 1.3s ease;
        transform-origin: 50%;
      }
      .cls-1 {
        fill: #ecf0f1;
      }

      .cls-1, .cls-2, .cls-3, .cls-4, .cls-5, .cls-6, .cls-7 {
        fill-rule: evenodd;
      }

      .cls-2 {
        fill: #16a085;
      }

      .cls-3 {
        fill: #1abc9c;
      }

      .cls-4 {
        fill: #bdc3c7;
      }

      .cls-5, .cls-6, .cls-7 {
        fill: #fff;
      }

      @keyframes bulb {
        0% {transform:translateY(-2px);}
        12.5% {transform:translateY(-1px) translateX(-2px);}
        25% {transform:translateX(-3px);}
        37.5% {transform:translateY(1px) translateX(-2px);}
        50% {transform:translateY(2px);}
        62.5% {transform:translateY(1px) translateX(2px);}
        75% {transform:translateX(3px);}
        87.5% {transform:translateY(-1px) translateX(2px);}
        100% {transform:translateY(-2px);}
      }

      .cls-6 {
        animation: bulb 8s infinite linear;
        filter: url(#drop-shadow-1);
        fill-opacity: 0.3;
      }

      @keyframes gas {
        0% {opacity: 0; transform:translateY(4px) scale(.8);}
        70% {transform:translateY(0);}
        100% {opacity: 1;}
      }

      .cls-7 {
        opacity: 0;
        transform-origin: 50%;
        animation: gas 1s .6s ease;
        animation-fill-mode: forwards;
        fill-opacity: 0.5;
      }
    </style>

    <filter id="drop-shadow-1" filterUnits="userSpaceOnUse">
      <feOffset dy="1" in="SourceAlpha"/>
      <feGaussianBlur result="dropBlur"/>
      <feFlood flood-color="#000101" flood-opacity="0.1"/>
      <feComposite operator="in" in2="dropBlur" result="dropShadowComp"/>
      <feComposite in="SourceGraphic" result="shadowed"/>
    </filter>
  </defs>
  <g class="container">
    <path d="M68.000,84.062 C68.000,89.793 64.071,100.134 64.079,99.928 C64.086,99.723 3.962,100.006 3.962,100.006 C3.962,100.006 0.000,89.824 0.000,84.062 C0.000,68.401 10.592,55.222 25.000,51.275 L25.000,28.062 L43.000,28.062 L43.000,51.275 C57.408,55.222 68.000,68.401 68.000,84.062 Z" class="cls-1"/>
    <path d="M57.638,70.062 C60.396,74.399 62.000,79.542 62.000,85.062 C62.000,90.609 57.000,100.062 57.000,100.062 L10.000,100.062 C10.000,100.062 6.000,90.587 6.000,85.062 C6.000,79.542 7.604,74.399 10.362,70.062 L57.638,70.062 Z" class="cls-2"/>
    <path d="M17.017,64.422 C26.390,59.934 41.587,59.934 50.960,64.422 C60.333,68.912 60.333,76.190 50.960,80.679 C41.587,85.168 26.390,85.168 17.017,80.679 C7.643,76.190 7.643,68.912 17.017,64.422 Z" class="cls-3"/>
    <path d="M25.010,25.806 L42.898,25.806 L42.961,33.991 C42.961,33.991 42.594,34.194 42.399,34.292 C37.712,36.635 30.197,36.635 25.510,34.292 C25.331,34.202 24.993,34.017 24.993,34.017 L25.010,25.806 Z" class="cls-4"/>
    <path d="M25.510,23.806 C30.197,21.463 37.795,21.463 42.482,23.806 C47.168,26.149 47.168,29.948 42.482,32.292 C37.795,34.635 30.197,34.635 25.510,32.292 C20.824,29.948 20.824,26.149 25.510,23.806 Z" class="cls-5"/>
    <path d="M29.751,26.643 C32.088,25.862 35.877,25.862 38.214,26.643 C40.551,27.425 40.551,28.691 38.214,29.472 C35.877,30.253 32.088,30.253 29.751,29.472 C27.413,28.691 27.413,27.425 29.751,26.643 Z" class="cls-4"/>
    <path d="M47.982,76.031 C47.980,76.285 47.690,76.539 47.107,76.732 C45.939,77.121 44.044,77.121 42.875,76.732 C42.293,76.539 42.002,76.285 42.000,76.031 L42.000,76.031 C42.000,76.031 42.000,76.031 42.000,76.031 C42.000,76.029 42.001,76.028 42.001,76.026 C42.003,74.380 43.345,73.047 45.000,73.047 C46.657,73.047 48.000,74.383 48.000,76.031 L47.982,76.031 ZM39.107,70.732 C37.939,71.121 36.044,71.121 34.875,70.732 C34.293,70.539 34.002,70.285 34.000,70.031 L34.000,70.031 C34.000,70.031 34.000,70.031 34.000,70.031 C34.000,70.029 34.000,70.028 34.000,70.026 C34.003,68.380 35.345,67.047 37.000,67.047 C38.657,67.047 40.000,68.383 40.000,70.031 L39.982,70.031 C39.981,70.285 39.690,70.539 39.107,70.732 ZM28.661,76.604 C26.908,77.190 24.066,77.190 22.313,76.604 C21.428,76.308 20.993,75.920 21.001,75.532 C21.009,73.054 23.020,71.047 25.500,71.047 C27.985,71.047 30.000,73.061 30.000,75.547 L29.974,75.547 C29.972,75.929 29.535,76.312 28.661,76.604 Z" class="cls-6"/>
    <path d="M40.500,16.062 C37.462,16.062 35.000,13.600 35.000,10.562 C35.000,7.525 37.462,5.062 40.500,5.062 C43.538,5.062 46.000,7.525 46.000,10.562 C46.000,13.600 43.538,16.062 40.500,16.062 ZM40.500,7.062 C38.567,7.062 37.000,8.629 37.000,10.562 C37.000,12.495 38.567,14.062 40.500,14.062 C42.433,14.062 44.000,12.495 44.000,10.562 C44.000,8.629 42.433,7.062 40.500,7.062 ZM29.500,6.062 C26.462,6.062 24.000,3.600 24.000,0.562 C24.000,0.369 24.029,-0.010 24.029,-0.010 L34.977,0.054 C34.977,0.054 35.000,0.391 35.000,0.562 C35.000,3.600 32.538,6.062 29.500,6.062 ZM32.976,0.146 L26.031,0.095 C26.031,0.095 26.000,0.404 26.000,0.562 C26.000,2.495 27.567,4.062 29.500,4.062 C31.433,4.062 33.000,2.495 33.000,0.562 C33.000,0.421 32.976,0.146 32.976,0.146 ZM28.000,10.062 C30.209,10.062 32.000,11.853 32.000,14.062 C32.000,16.271 30.209,18.062 28.000,18.062 C25.791,18.062 24.000,16.271 24.000,14.062 C24.000,11.853 25.791,10.062 28.000,10.062 ZM28.000,16.062 C29.105,16.062 30.000,15.167 30.000,14.062 C30.000,12.957 29.105,12.062 28.000,12.062 C26.895,12.062 26.000,12.957 26.000,14.062 C26.000,15.167 26.895,16.062 28.000,16.062 Z" class="cls-7"/>
  </g>
</svg>
